<svg width="96" height="27" viewBox="0 0 96 27" fill="none" xmlns="http://www.w3.org/2000/svg">
<path d="M12.0844 11.1488C11.9629 10.9925 10.7189 9.45648 10.7189 9.45648V19.1907C10.7189 19.9862 11.364 20.6313 12.1654 20.6313C12.9668 20.6313 13.612 19.9862 13.612 19.1907L13.5917 12.7745C13.1462 12.3753 12.7238 11.9298 12.0844 11.1488Z" fill="url(#paint0_linear)"/>
<path d="M25.2712 16.8852C24.7736 16.8852 24.3049 16.7781 23.8825 16.5814C23.8507 16.8852 23.9751 17.8514 22.4475 18.968C22.3347 19.0461 16.2187 22.9224 14.937 23.5675C13.2822 24.4064 11.4335 24.1489 10.3457 23.5906C9.92331 23.4142 4.55951 20.2263 4.34253 20.0701C3.94329 19.7866 3.28655 19.237 3.07825 18.5283C2.88731 17.915 2.89599 16.9575 2.89599 16.9575V8.8577C2.89599 7.60512 3.2663 5.35743 5.54895 4.35653C8.0023 3.45109 9.33601 4.87144 10.6119 6.42776C10.7102 6.54926 13.1983 9.83546 14.2948 10.8103C15.7095 12.0716 17.1387 12.7167 18.8601 12.7167C23.4919 12.7167 25.2538 9.05441 25.2538 6.35255C25.2509 2.8465 22.381 0 18.8572 0C16.67 0 14.6593 1.10794 13.4963 2.91592C13.7104 3.16181 14.2572 3.83583 14.3411 3.93418C14.3642 3.95732 15.2842 5.14626 15.3334 5.21568C15.4925 5.02187 16.8147 2.91882 18.8543 2.91882C20.9431 2.91882 22.3 4.54456 22.3 6.35255C22.3 8.24153 20.7637 9.76892 18.9121 9.76892C17.8157 9.76892 17.1069 9.3784 16.236 8.60024C15.3652 7.82208 13.1838 4.9293 13.1838 4.9293C12.9929 4.67473 11.4856 2.85228 10.4065 2.13487C9.05827 1.22654 7.1633 0.682696 4.63763 1.52739C2.11196 2.37208 0 5.09997 0 8.8577L0.0115724 16.9575C0.0115724 17.267 -0.0115724 18.2766 0.240127 19.2283C0.650946 20.7962 1.40026 21.6814 2.95385 22.6476C3.69448 23.0641 7.96179 25.6185 8.62142 25.9714C9.87413 26.6367 11.1182 26.9723 12.7875 26.9752C14.0749 26.9781 15.3276 26.6628 16.3894 26.1102C18.0992 25.2395 23.6539 21.6814 24.004 21.4615C25.6328 20.3623 26.9607 18.6295 26.8248 16.5033C26.3619 16.7434 25.8324 16.8852 25.2712 16.8852Z" fill="url(#paint1_linear)"/>
<path d="M25.2769 15.323C26.2142 15.323 26.9751 14.568 26.9751 13.6307C26.9751 12.6992 26.2142 11.9384 25.2769 11.9384C24.3395 11.9384 23.5786 12.6935 23.5786 13.6307C23.5786 14.568 24.3395 15.323 25.2769 15.323Z" fill="url(#paint2_linear)"/>
<path d="M36.9013 25.9474C35.9986 25.9474 35.3083 25.204 35.3083 24.3544V12.5663C35.3083 10.3361 36.8482 6.83157 41.4679 6.83157C42.2644 6.83157 47.2026 6.83158 47.2026 13.3097C47.2026 19.5754 43.5919 19.9471 42.1051 19.9471C40.1404 19.9471 38.866 18.7259 38.4943 18.0356V24.3544C38.4943 25.204 37.804 25.9474 36.9013 25.9474ZM43.9105 13.4159C43.9105 12.1946 43.6981 11.2388 43.2202 10.5485C42.7423 9.85824 42.052 9.53965 41.2024 9.53965C40.3528 9.53965 39.6625 9.85824 39.1846 10.5485C38.7598 11.1326 38.5474 12.0884 38.5474 13.4159C38.5474 14.6372 38.7598 15.5399 39.2377 16.124C39.7156 16.8143 40.4059 17.1329 41.2555 17.1329C42.052 17.1329 42.7423 16.8143 43.2202 16.124C43.6981 15.4868 43.9105 14.5841 43.9105 13.4159Z" fill="#1C1C1C"/>
<path d="M65.6811 19.7348C64.7253 19.7348 63.9288 18.9914 63.9288 18.0887V8.79632C63.9288 7.89363 64.7253 7.15024 65.6811 7.15024C66.6369 7.15024 67.4334 7.89363 67.4334 8.79632V18.0887C67.4334 18.9914 66.6369 19.7348 65.6811 19.7348Z" fill="#1C1C1C"/>
<path d="M65.7009 1.38205C64.7 1.38205 63.8748 2.22207 63.8748 3.24082C63.8748 4.25957 64.7 5.0996 65.7009 5.0996C66.7018 5.0996 67.5271 4.25957 67.5271 3.24082C67.5271 2.22207 66.7194 1.38205 65.7009 1.38205Z" fill="#1C1C1C"/>
<path d="M80.5561 0.990753C79.6534 0.990753 78.9631 1.73415 78.9631 2.58374V8.79638C78.5914 8.21228 78.0604 7.6813 77.4232 7.3096C76.8391 6.991 76.1488 6.83169 75.3523 6.83169C73.8655 6.83169 72.6442 7.46888 71.6885 8.69017C70.7858 9.91146 70.3079 11.5044 70.3079 13.4691C70.3079 15.4869 70.7858 17.0799 71.6885 18.2481C72.1663 18.8322 72.8035 19.3101 73.6 19.5756C74.3965 19.8411 75.193 20.0004 76.0426 20.0004C77.5825 20.0004 78.9631 19.6287 80.2906 18.8322C81.565 18.0357 82.2553 16.4958 82.2553 14.2656V2.58374C82.2022 1.68105 81.4588 0.990753 80.5561 0.990753ZM78.3259 16.2303C77.848 16.9206 77.2108 17.2392 76.3081 17.2392C75.4054 17.2392 74.7151 16.9206 74.2903 16.2303C73.8124 15.54 73.6 14.5842 73.6 13.3629C73.6 12.2478 73.8124 11.3452 74.2903 10.708C74.7682 10.0177 75.4054 9.69907 76.255 9.69907C77.1046 9.69907 77.7949 10.0177 78.2728 10.6549C78.7507 11.3452 78.9631 12.2478 78.9631 13.3629C78.9631 14.5842 78.7507 15.5931 78.3259 16.2303Z" fill="#1C1C1C"/>
<path d="M59.4325 19.7771C60.3352 19.7771 61.0255 19.0338 61.0255 18.1842V12.3963C61.0255 10.1662 59.4856 6.66159 54.866 6.66159C54.0695 6.66159 49.1312 6.6616 49.1312 13.1397C49.1312 19.4054 52.742 19.7771 54.2288 19.7771C56.1935 19.7771 57.4679 18.5559 57.8395 17.8656V18.1842C57.8395 19.0338 58.5298 19.7771 59.4325 19.7771ZM52.4234 13.2459C52.4234 12.0246 52.6358 11.0688 53.1137 10.3785C53.5916 9.68826 54.2819 9.36966 55.1315 9.36966C55.9811 9.36966 56.6714 9.68826 57.1493 10.3785C57.574 10.9626 57.7864 11.9184 57.7864 13.2459C57.7864 14.4672 57.574 15.3699 57.0962 15.954C56.6183 16.6443 55.928 16.9629 55.0784 16.9629C54.2819 16.9629 53.5916 16.6443 53.1137 15.954C52.6358 15.3168 52.4234 14.4141 52.4234 13.2459Z" fill="#1C1C1C"/>
<path d="M86.1847 24.9917C86.1847 25.4695 86.5564 25.8412 86.9812 25.8943C87.937 26.0005 89.4769 26.0005 90.3264 25.3103C90.9105 24.8324 91.3884 24.1421 91.7601 23.0801L95.9019 9.22111C96.2736 8.15913 95.4771 7.09714 94.362 7.09714C93.6186 7.09714 92.9814 7.57504 92.8221 8.26533L90.5919 16.0179L88.3618 8.31843C88.1494 7.57504 87.5122 7.09714 86.7157 7.09714C85.5475 7.09714 84.751 8.26533 85.1227 9.32732L88.7335 21.2747C88.9459 21.965 88.8928 22.4429 88.5211 22.7084C88.1494 23.027 87.6715 23.1863 87.0343 23.1863C86.5564 23.1863 86.1316 23.6111 86.1316 24.089V24.9917H86.1847Z" fill="#1C1C1C"/>
<defs>
<linearGradient id="paint0_linear" x1="2.21535" y1="23.7875" x2="25.0674" y2="2.77143" gradientUnits="userSpaceOnUse">
<stop stop-color="#A6009C"/>
<stop offset="1" stop-color="#FF009C"/>
</linearGradient>
<linearGradient id="paint1_linear" x1="2.32906" y1="31.452" x2="17.9066" y2="4.46812" gradientUnits="userSpaceOnUse">
<stop offset="0.00901231" stop-color="#A6009C"/>
<stop offset="1" stop-color="#FF009C"/>
</linearGradient>
<linearGradient id="paint2_linear" x1="7.41273" y1="30.0547" x2="31.1379" y2="8.23567" gradientUnits="userSpaceOnUse">
<stop stop-color="#A6009C"/>
<stop offset="1" stop-color="#FF009C"/>
</linearGradient>
</defs>
</svg>
